<svg width="9" height="8" viewBox="0 0 9 8" fill="none" xmlns="http://www.w3.org/2000/svg">
<path d="M3.17989 1.22568C3.59852 0.0601594 5.24684 0.0601592 5.66548 1.22568L5.68338 1.27551C5.861 1.77002 6.32989 2.09982 6.85533 2.09982H7.07019C8.24265 2.09982 8.69861 3.62373 7.71881 4.26769C7.26287 4.56735 7.07354 5.14584 7.25797 5.65931C7.65329 6.75992 6.42842 7.75226 5.45114 7.10996L5.15613 6.91607C4.71094 6.62347 4.13443 6.62347 3.68923 6.91607L3.39422 7.10996C2.41695 7.75226 1.19208 6.75992 1.5874 5.65931C1.77183 5.14584 1.58249 4.56735 1.12655 4.26769C0.146756 3.62373 0.602709 2.09982 1.77518 2.09982H1.99004C2.51547 2.09982 2.98437 1.77002 3.16199 1.27551L3.17989 1.22568Z" fill="#FFF84E"/>
</svg>
